# xmcd CD database file
#
# Track frame offsets:
#	150
#	11604
#	22623
#	35302
#	46363
#	59453
#	73683
#	86358
#	99073
#	110543
#	121776
#	133566
#	145012
#	157984
#	173208
#
# Disc length: 2510 seconds
#
# Revision: 0
# Processed by: cddbd v1.5.1PL0 Copyright (c) Steve Scherf et al.
# Submitted via: CDex 1.51
#
DISCID=af09cc0f
DTITLE=Ray Charles - The One and Only
DYEAR=2005
DGENRE=Blues
TTITLE0=She's On The Ball
TTITLE1=A Sentimental Blues
TTITLE2=You Always Miss the Water (Whe The Well Runs Dry)
TTITLE3=Let's Have A Ball
TTITLE4=Baby, Won't You Please Come Home
TTITLE5=Walkin' and Talkin'
TTITLE6=Blues Before Sunrise
TTITLE7=Don't Put All Your Dreams In One Basket
TTITLE8=What Have I Done?
TTITLE9=If I Give You My Love
TTITLE10=Roll With Me Baby
TTITLE11=Back Home
TTITLE12=The Snow Is Falling
TTITLE13=Lord Have Mercy
TTITLE14=I'm Wonderin' And Wonderin'
EXTD=YEAR: 2005
EXTT0=
EXTT1=
EXTT2=
EXTT3=
EXTT4=
EXTT5=
EXTT6=
EXTT7=
EXTT8=
EXTT9=
EXTT10=
EXTT11=
EXTT12=
EXTT13=
EXTT14=
PLAYORDER=
